<svg id="SVGRoot" version="1.1" viewBox="0 0 900 900" xmlns="http://www.w3.org/2000/svg">
 <style type="text/css">g.prefab path {
  vector-effect:non-scaling-stroke;
  -inkscape-stroke:hairline;
  fill: none;
  fill-opacity: 1;
  stroke-opacity: 1;
  stroke: #00349c;
}</style>
 <g class="prefab" style="display:none;fill:none;stroke-width:2;stroke:#00112b">
  <path d="m849.53 50h-799.82l799.82 800zm-397.84-2e-6h398.31v800h-398.31zm-401.51 400h799.82v400h-799.82zm-1e-6 -400h799.82l-799.82 800z" style="display:inline;fill:none;stroke-width:2;stroke:#00112b"/>
  <path d="m450 50a400 400 0 0 0-400 400 400 400 0 0 0 400 400 400 400 0 0 0 400-400 400 400 0 0 0-400-400zm0 100a300 300 0 0 1 300 300 300 300 0 0 1-300 300 300 300 0 0 1-300-300 300 300 0 0 1 300-300zm0 100a200 200 0 0 0-200 200 200 200 0 0 0 200 200 200 200 0 0 0 200-200 200 200 0 0 0-200-200zm0 100a100 100 0 0 1 100 100 100 100 0 0 1-100 100 100 100 0 0 1-100-100 100 100 0 0 1 100-100z" style="display:inline;fill:none;stroke:#00112b"/>
 </g>
 <rect width="900" height="900" ry="0" style="fill:#003380"/>
 <circle cx="450" cy="450" r="375.66" style="fill:none;stroke-width:47.672;stroke:#fff"/>
 <text x="194.26758" y="726.85547" style="fill:#ffffff;font-size:840px" xml:space="preserve"><tspan x="194.26758" y="726.85547" style="fill:#ffffff;font-family:'Liberation Mono';font-size:840px">6</tspan></text>
</svg>
